<svg xmlns="http://www.w3.org/2000/svg" version="1.1" xmlns:xlink="http://www.w3.org/1999/xlink" xmlns:svgjs="http://svgjs.com/svgjs" width="1440" height="560" preserveAspectRatio="none" viewBox="0 0 1440 560"><g mask="url(&quot;#SvgjsMask1563&quot;)" fill="none"><rect width="1440" height="560" x="0" y="0" fill="rgba(0, 0, 0, 1)"></rect><g><path d="M212.5 262.5L237.5 287.5L262.5 287.5M612.5 212.5L637.5 237.5L662.5 237.5M537.5 237.5L562.5 262.5M462.5 237.5L487.5 262.5L512.5 262.5L537.5 262.5M412.5 237.5L437.5 212.5M137.5 287.5L162.5 287.5L187.5 287.5L212.5 287.5M-12.5 287.5L12.5 287.5L37.5 287.5L62.5 287.5L87.5 287.5L112.5 287.5L137.5 287.5L162.5 262.5L187.5 262.5L212.5 262.5L237.5 262.5L262.5 262.5L287.5 262.5L312.5 262.5L337.5 262.5L362.5 262.5L387.5 262.5L412.5 237.5L437.5 237.5L462.5 237.5L487.5 237.5L512.5 237.5L537.5 237.5L562.5 237.5L587.5 212.5L612.5 212.5L637.5 212.5" stroke="url(#SvgjsLinearGradient1564)" stroke-width="4.17"></path><path d="M633.33 212.5 a4.17 4.17 0 1 0 8.34 0 a4.17 4.17 0 1 0 -8.34 0zM258.33 287.5 a4.17 4.17 0 1 0 8.34 0 a4.17 4.17 0 1 0 -8.34 0zM658.33 237.5 a4.17 4.17 0 1 0 8.34 0 a4.17 4.17 0 1 0 -8.34 0zM558.33 262.5 a4.17 4.17 0 1 0 8.34 0 a4.17 4.17 0 1 0 -8.34 0zM533.33 262.5 a4.17 4.17 0 1 0 8.34 0 a4.17 4.17 0 1 0 -8.34 0zM433.33 212.5 a4.17 4.17 0 1 0 8.34 0 a4.17 4.17 0 1 0 -8.34 0zM208.33 287.5 a4.17 4.17 0 1 0 8.34 0 a4.17 4.17 0 1 0 -8.34 0z" fill="url(#SvgjsLinearGradient1564)"></path><path d="M-12.5 262.5L12.5 262.5L37.5 262.5L62.5 262.5L87.5 262.5L112.5 262.5L137.5 262.5L162.5 237.5L187.5 237.5L212.5 237.5" stroke="url(#SvgjsLinearGradient1564)" stroke-width="4.17"></path><path d="M208.33 237.5 a4.17 4.17 0 1 0 8.34 0 a4.17 4.17 0 1 0 -8.34 0z" fill="url(#SvgjsLinearGradient1564)"></path><path d="M187.5 337.5L212.5 337.5M287.5 362.5L312.5 337.5L337.5 337.5M162.5 337.5L187.5 362.5M237.5 362.5L262.5 337.5L287.5 312.5M-12.5 312.5L12.5 312.5L37.5 312.5L62.5 312.5L87.5 312.5L112.5 312.5L137.5 337.5L162.5 337.5L187.5 337.5L212.5 362.5L237.5 362.5L262.5 362.5L287.5 362.5L312.5 362.5L337.5 362.5L362.5 362.5L387.5 362.5" stroke="url(#SvgjsLinearGradient1564)" stroke-width="4.17"></path><path d="M383.33 362.5 a4.17 4.17 0 1 0 8.34 0 a4.17 4.17 0 1 0 -8.34 0zM208.33 337.5 a4.17 4.17 0 1 0 8.34 0 a4.17 4.17 0 1 0 -8.34 0zM333.33 337.5 a4.17 4.17 0 1 0 8.34 0 a4.17 4.17 0 1 0 -8.34 0zM183.33 362.5 a4.17 4.17 0 1 0 8.34 0 a4.17 4.17 0 1 0 -8.34 0zM283.33 312.5 a4.17 4.17 0 1 0 8.34 0 a4.17 4.17 0 1 0 -8.34 0z" fill="url(#SvgjsLinearGradient1564)"></path><path d="M237.5 212.5L262.5 237.5L287.5 237.5L312.5 237.5M-12.5 237.5L12.5 237.5L37.5 237.5L62.5 237.5L87.5 237.5L112.5 237.5L137.5 237.5L162.5 212.5L187.5 212.5L212.5 212.5L237.5 212.5L262.5 212.5L287.5 212.5L312.5 212.5" stroke="url(#SvgjsLinearGradient1564)" stroke-width="4.17"></path><path d="M308.33 212.5 a4.17 4.17 0 1 0 8.34 0 a4.17 4.17 0 1 0 -8.34 0zM308.33 237.5 a4.17 4.17 0 1 0 8.34 0 a4.17 4.17 0 1 0 -8.34 0z" fill="url(#SvgjsLinearGradient1564)"></path><path d="M-12.5 337.5L12.5 337.5L37.5 337.5L62.5 337.5L87.5 337.5L112.5 337.5" stroke="url(#SvgjsLinearGradient1564)" stroke-width="4.17"></path><path d="M108.33 337.5 a4.17 4.17 0 1 0 8.34 0 a4.17 4.17 0 1 0 -8.34 0z" fill="url(#SvgjsLinearGradient1564)"></path><path d="M387.5 187.5L412.5 212.5M537.5 212.5L562.5 187.5L587.5 162.5L612.5 162.5L637.5 162.5M487.5 212.5L512.5 187.5L537.5 162.5L562.5 162.5L587.5 137.5L612.5 137.5L637.5 137.5L662.5 137.5M287.5 187.5L312.5 162.5L337.5 162.5L362.5 162.5L387.5 162.5L412.5 162.5L437.5 162.5L462.5 162.5M437.5 187.5L462.5 187.5L487.5 187.5L512.5 162.5L537.5 137.5L562.5 137.5M262.5 187.5L287.5 162.5M-12.5 212.5L12.5 212.5L37.5 212.5L62.5 212.5L87.5 212.5L112.5 212.5L137.5 212.5L162.5 187.5L187.5 187.5L212.5 187.5L237.5 187.5L262.5 187.5L287.5 187.5L312.5 187.5L337.5 187.5L362.5 187.5L387.5 187.5L412.5 187.5L437.5 187.5L462.5 212.5L487.5 212.5L512.5 212.5L537.5 212.5L562.5 212.5L587.5 187.5L612.5 187.5" stroke="url(#SvgjsLinearGradient1564)" stroke-width="4.17"></path><path d="M608.33 187.5 a4.17 4.17 0 1 0 8.34 0 a4.17 4.17 0 1 0 -8.34 0zM408.33 212.5 a4.17 4.17 0 1 0 8.34 0 a4.17 4.17 0 1 0 -8.34 0zM633.33 162.5 a4.17 4.17 0 1 0 8.34 0 a4.17 4.17 0 1 0 -8.34 0zM658.33 137.5 a4.17 4.17 0 1 0 8.34 0 a4.17 4.17 0 1 0 -8.34 0zM458.33 162.5 a4.17 4.17 0 1 0 8.34 0 a4.17 4.17 0 1 0 -8.34 0zM558.33 137.5 a4.17 4.17 0 1 0 8.34 0 a4.17 4.17 0 1 0 -8.34 0zM283.33 162.5 a4.17 4.17 0 1 0 8.34 0 a4.17 4.17 0 1 0 -8.34 0z" fill="url(#SvgjsLinearGradient1564)"></path><path d="M137.5 387.5L162.5 362.5M412.5 412.5L437.5 387.5M187.5 387.5L212.5 387.5L237.5 387.5L262.5 387.5L287.5 387.5L312.5 387.5M487.5 412.5L512.5 387.5L537.5 387.5L562.5 387.5L587.5 387.5M387.5 437.5L412.5 437.5L437.5 437.5L462.5 437.5L487.5 437.5M-12.5 362.5L12.5 362.5L37.5 362.5L62.5 362.5L87.5 362.5L112.5 362.5L137.5 387.5L162.5 387.5L187.5 387.5L212.5 412.5L237.5 412.5L262.5 412.5L287.5 412.5L312.5 412.5L337.5 412.5L362.5 437.5L387.5 437.5L412.5 412.5L437.5 412.5L462.5 412.5L487.5 412.5L512.5 412.5L537.5 412.5" stroke="url(#SvgjsLinearGradient1564)" stroke-width="4.17"></path><path d="M533.33 412.5 a4.17 4.17 0 1 0 8.34 0 a4.17 4.17 0 1 0 -8.34 0zM158.33 362.5 a4.17 4.17 0 1 0 8.34 0 a4.17 4.17 0 1 0 -8.34 0zM433.33 387.5 a4.17 4.17 0 1 0 8.34 0 a4.17 4.17 0 1 0 -8.34 0zM308.33 387.5 a4.17 4.17 0 1 0 8.34 0 a4.17 4.17 0 1 0 -8.34 0zM583.33 387.5 a4.17 4.17 0 1 0 8.34 0 a4.17 4.17 0 1 0 -8.34 0zM483.33 437.5 a4.17 4.17 0 1 0 8.34 0 a4.17 4.17 0 1 0 -8.34 0z" fill="url(#SvgjsLinearGradient1564)"></path><path d="M-12.5 187.5L12.5 187.5L37.5 187.5L62.5 187.5L87.5 187.5L112.5 187.5L137.5 187.5L162.5 162.5L187.5 162.5L212.5 162.5" stroke="url(#SvgjsLinearGradient1564)" stroke-width="4.17"></path><path d="M208.33 162.5 a4.17 4.17 0 1 0 8.34 0 a4.17 4.17 0 1 0 -8.34 0z" fill="url(#SvgjsLinearGradient1564)"></path><path d="M12.5 387.5L37.5 412.5L62.5 437.5L87.5 437.5L112.5 437.5L137.5 437.5L162.5 437.5L187.5 437.5L212.5 462.5L237.5 462.5M437.5 462.5L462.5 487.5L487.5 512.5L512.5 512.5L537.5 512.5L562.5 512.5L587.5 512.5L612.5 512.5M62.5 387.5L87.5 412.5M462.5 462.5L487.5 462.5M287.5 437.5L312.5 462.5M-12.5 387.5L12.5 387.5L37.5 387.5L62.5 387.5L87.5 387.5L112.5 387.5L137.5 412.5L162.5 412.5L187.5 412.5L212.5 437.5L237.5 437.5L262.5 437.5L287.5 437.5L312.5 437.5L337.5 437.5L362.5 462.5L387.5 462.5L412.5 462.5L437.5 462.5L462.5 462.5L487.5 487.5L512.5 487.5" stroke="url(#SvgjsLinearGradient1564)" stroke-width="4.17"></path><path d="M508.33 487.5 a4.17 4.17 0 1 0 8.34 0 a4.17 4.17 0 1 0 -8.34 0zM233.33 462.5 a4.17 4.17 0 1 0 8.34 0 a4.17 4.17 0 1 0 -8.34 0zM608.33 512.5 a4.17 4.17 0 1 0 8.34 0 a4.17 4.17 0 1 0 -8.34 0zM83.33 412.5 a4.17 4.17 0 1 0 8.34 0 a4.17 4.17 0 1 0 -8.34 0zM483.33 462.5 a4.17 4.17 0 1 0 8.34 0 a4.17 4.17 0 1 0 -8.34 0zM308.33 462.5 a4.17 4.17 0 1 0 8.34 0 a4.17 4.17 0 1 0 -8.34 0z" fill="url(#SvgjsLinearGradient1564)"></path><path d="M62.5 162.5L87.5 137.5L112.5 137.5M412.5 137.5L437.5 112.5L462.5 112.5L487.5 112.5L512.5 112.5L537.5 112.5L562.5 112.5L587.5 112.5M212.5 137.5L237.5 112.5L262.5 112.5L287.5 112.5L312.5 112.5M162.5 137.5L187.5 112.5L212.5 112.5L237.5 87.5M362.5 137.5L387.5 112.5L412.5 112.5M-12.5 162.5L12.5 162.5L37.5 162.5L62.5 162.5L87.5 162.5L112.5 162.5L137.5 162.5L162.5 137.5L187.5 137.5L212.5 137.5L237.5 137.5L262.5 137.5L287.5 137.5L312.5 137.5L337.5 137.5L362.5 137.5L387.5 137.5L412.5 137.5L437.5 137.5L462.5 137.5" stroke="url(#SvgjsLinearGradient1564)" stroke-width="4.17"></path><path d="M458.33 137.5 a4.17 4.17 0 1 0 8.34 0 a4.17 4.17 0 1 0 -8.34 0zM108.33 137.5 a4.17 4.17 0 1 0 8.34 0 a4.17 4.17 0 1 0 -8.34 0zM583.33 112.5 a4.17 4.17 0 1 0 8.34 0 a4.17 4.17 0 1 0 -8.34 0zM308.33 112.5 a4.17 4.17 0 1 0 8.34 0 a4.17 4.17 0 1 0 -8.34 0zM233.33 87.5 a4.17 4.17 0 1 0 8.34 0 a4.17 4.17 0 1 0 -8.34 0zM408.33 112.5 a4.17 4.17 0 1 0 8.34 0 a4.17 4.17 0 1 0 -8.34 0z" fill="url(#SvgjsLinearGradient1564)"></path></g></g><defs><mask id="SvgjsMask1563"><rect width="1440" height="560" fill="#ffffff"></rect></mask><linearGradient x1="720" y1="280" x2="0" y2="280" gradientUnits="userSpaceOnUse" id="SvgjsLinearGradient1564"><stop stop-color="rgba(0, 74, 154, 1)" offset="0"></stop><stop stop-color="rgba(223, 0, 141, 1)" offset="1"></stop></linearGradient></defs></svg>